<svg width="162" height="44" viewBox="0 0 162 44" fill="none" xmlns="http://www.w3.org/2000/svg">
<path d="M13.6719 34H1.17188V30.875H4.29688V12.9062H1.17188V9.78125H13.6719C15.0716 9.78125 16.3932 9.9375 17.6367 10.25C18.8802 10.556 19.9805 10.9857 20.9375 11.5391C21.901 12.0859 22.7637 12.737 23.5254 13.4922C24.2936 14.2474 24.9251 15.0742 25.4199 15.9727C25.9212 16.8711 26.3021 17.8216 26.5625 18.8242C26.8229 19.8203 26.9531 20.8424 26.9531 21.8906C26.9531 22.9388 26.8229 23.9642 26.5625 24.9668C26.3021 25.9629 25.9212 26.9102 25.4199 27.8086C24.9251 28.707 24.2936 29.5339 23.5254 30.2891C22.7637 31.0443 21.901 31.6986 20.9375 32.252C19.9805 32.7988 18.8802 33.2285 17.6367 33.541C16.3932 33.847 15.0716 34 13.6719 34ZM13.6719 30.875C14.6875 30.875 15.5957 30.6504 16.3965 30.2012C17.1973 29.7454 17.8516 29.1139 18.3594 28.3066C18.8737 27.4993 19.2611 26.5553 19.5215 25.4746C19.7884 24.3874 19.9219 23.1927 19.9219 21.8906C19.9219 20.849 19.8438 19.8789 19.6875 18.9805C19.5312 18.082 19.2871 17.2585 18.9551 16.5098C18.623 15.7546 18.2129 15.1133 17.7246 14.5859C17.2428 14.0521 16.6569 13.6387 15.9668 13.3457C15.2767 13.0527 14.5117 12.9062 13.6719 12.9062H10.5469V30.875H13.6719ZM34.7461 26.1875C34.8047 26.9427 34.9284 27.6165 35.1172 28.209C35.306 28.8014 35.5339 29.2865 35.8008 29.6641C36.0742 30.0417 36.39 30.3542 36.748 30.6016C37.1061 30.8424 37.474 31.015 37.8516 31.1191C38.2292 31.2168 38.6328 31.2656 39.0625 31.2656C40.4362 31.2656 41.5072 31.002 42.2754 30.4746C43.0501 29.9408 43.6686 29.1204 44.1309 28.0137L46.7285 28.9121C46.4941 29.5436 46.1947 30.1393 45.8301 30.6992C45.472 31.2526 45.0391 31.7637 44.5312 32.2324C44.0234 32.7012 43.457 33.1048 42.832 33.4434C42.2135 33.7754 41.5137 34.0358 40.7324 34.2246C39.9512 34.4134 39.1276 34.5078 38.2617 34.5078C36.9792 34.5078 35.765 34.2832 34.6191 33.834C33.4798 33.3848 32.487 32.7598 31.6406 31.959C30.8008 31.1517 30.1335 30.1589 29.6387 28.9805C29.1504 27.8021 28.9062 26.5195 28.9062 25.1328C28.9062 23.7461 29.1504 22.457 29.6387 21.2656C30.1335 20.0742 30.8008 19.0716 31.6406 18.2578C32.487 17.4375 33.4798 16.7962 34.6191 16.334C35.765 15.8717 36.9792 15.6406 38.2617 15.6406C39.5443 15.6406 40.7552 15.8717 41.8945 16.334C43.0404 16.7962 44.0332 17.4375 44.873 18.2578C45.7194 19.0716 46.3867 20.0742 46.875 21.2656C47.3698 22.457 47.6172 23.7461 47.6172 25.1328L47.373 26.1875H34.7461ZM34.8145 23.0625H41.709C41.5397 21.5651 41.1654 20.4746 40.5859 19.791C40.0065 19.1074 39.2383 18.7656 38.2812 18.7656C37.806 18.7656 37.3796 18.8438 37.002 19C36.6243 19.1497 36.2858 19.3939 35.9863 19.7324C35.6868 20.0645 35.4362 20.5104 35.2344 21.0703C35.0391 21.6237 34.8991 22.2878 34.8145 23.0625ZM65.9766 22.2324V30.875H67.9297V34H61.8457L60.9766 31.9688C60.3125 32.9193 59.541 33.5703 58.6621 33.9219C57.7897 34.2734 56.569 34.4492 55 34.4492C54.1862 34.4492 53.4277 34.306 52.7246 34.0195C52.028 33.7396 51.4323 33.3555 50.9375 32.8672C50.4492 32.3789 50.0651 31.793 49.7852 31.1094C49.5117 30.4258 49.375 29.6934 49.375 28.9121C49.375 27.5645 49.9023 26.4479 50.957 25.5625C52.0117 24.6706 53.3594 24.2246 55 24.2246C56.3216 24.2246 57.4154 24.3516 58.2812 24.6055C59.1471 24.8529 59.8893 25.25 60.5078 25.7969V21.6562C60.5078 21.0703 60.4264 20.582 60.2637 20.1914C60.1074 19.7943 59.8698 19.4915 59.5508 19.2832C59.2318 19.0684 58.8737 18.9186 58.4766 18.834C58.0794 18.7493 57.6042 18.707 57.0508 18.707C56.6081 18.707 56.2077 18.8014 55.8496 18.9902C56.0514 19.4134 56.1523 19.8594 56.1523 20.3281C56.1523 21.194 55.8464 21.9329 55.2344 22.5449C54.6289 23.1504 53.8932 23.4531 53.0273 23.4531C52.1615 23.4531 51.4225 23.1504 50.8105 22.5449C50.2051 21.9329 49.9023 21.194 49.9023 20.3281C49.9023 19.8854 49.987 19.4688 50.1562 19.0781C50.332 18.6875 50.5729 18.3457 50.8789 18.0527C51.1393 17.7793 51.4095 17.5352 51.6895 17.3203C51.9694 17.099 52.321 16.8809 52.7441 16.666C53.1738 16.4447 53.6393 16.2624 54.1406 16.1191C54.6419 15.9759 55.2409 15.862 55.9375 15.7773C56.6406 15.6862 57.4089 15.6406 58.2422 15.6406C59.3229 15.6406 60.3385 15.8001 61.2891 16.1191C62.2396 16.4382 63.0599 16.8809 63.75 17.4473C64.4401 18.0137 64.9837 18.7103 65.3809 19.5371C65.778 20.3639 65.9766 21.2624 65.9766 22.2324ZM60.5078 29.6641V28.3164C60.1042 27.9323 59.6484 27.61 59.1406 27.3496C58.6393 27.0827 58.1738 26.9492 57.7441 26.9492C56.8197 26.9492 56.1686 27.1055 55.791 27.418C55.4134 27.724 55.2246 28.222 55.2246 28.9121C55.2246 29.7389 55.3874 30.3477 55.7129 30.7383C56.0384 31.1289 56.6439 31.3242 57.5293 31.3242C58.0306 31.3242 58.5514 31.1647 59.0918 30.8457C59.6387 30.5202 60.1107 30.1263 60.5078 29.6641ZM69.6875 16.0312H75.752L76.9824 18.4043C78.1348 16.5618 79.7656 15.6406 81.875 15.6406C83.2878 15.6406 84.4076 16.0768 85.2344 16.9492C86.0677 17.8151 86.4844 18.9414 86.4844 20.3281C86.4844 21.194 86.1784 21.9329 85.5664 22.5449C84.9609 23.1504 84.2253 23.4531 83.3594 23.4531C82.4935 23.4531 81.7546 23.1504 81.1426 22.5449C80.5371 21.9329 80.2344 21.194 80.2344 20.3281C80.2344 19.9766 80.2897 19.638 80.4004 19.3125C80.2246 19.2083 80.0391 19.1562 79.8438 19.1562C79.4076 19.1562 78.9551 19.4427 78.4863 20.0156C78.0241 20.582 77.5781 21.4316 77.1484 22.5645L77.1094 30.875H81.4062V34H69.6875V30.875H71.6406V19.1562H69.6875V16.0312ZM101.328 30.875V34H86.4844V30.875H89.6094V12.9062H86.4844V9.78125H107.578V17.5938H104.062V16.0312C104.062 15.7122 104.033 15.3835 103.975 15.0449C103.923 14.7064 103.838 14.3711 103.721 14.0391C103.61 13.707 103.447 13.4368 103.232 13.2285C103.018 13.0137 102.773 12.9062 102.5 12.9062H95.8594V21.5H99.375V17.9844H102.5V28.1406H99.375V24.625H95.8594V30.875H101.328ZM124.766 22.2324V30.875H126.719V34H120.635L119.766 31.9688C119.102 32.9193 118.33 33.5703 117.451 33.9219C116.579 34.2734 115.358 34.4492 113.789 34.4492C112.975 34.4492 112.217 34.306 111.514 34.0195C110.817 33.7396 110.221 33.3555 109.727 32.8672C109.238 32.3789 108.854 31.793 108.574 31.1094C108.301 30.4258 108.164 29.6934 108.164 28.9121C108.164 27.5645 108.691 26.4479 109.746 25.5625C110.801 24.6706 112.148 24.2246 113.789 24.2246C115.111 24.2246 116.204 24.3516 117.07 24.6055C117.936 24.8529 118.678 25.25 119.297 25.7969V21.6562C119.297 21.0703 119.215 20.582 119.053 20.1914C118.896 19.7943 118.659 19.4915 118.34 19.2832C118.021 19.0684 117.663 18.9186 117.266 18.834C116.868 18.7493 116.393 18.707 115.84 18.707C115.397 18.707 114.997 18.8014 114.639 18.9902C114.84 19.4134 114.941 19.8594 114.941 20.3281C114.941 21.194 114.635 21.9329 114.023 22.5449C113.418 23.1504 112.682 23.4531 111.816 23.4531C110.951 23.4531 110.212 23.1504 109.6 22.5449C108.994 21.9329 108.691 21.194 108.691 20.3281C108.691 19.8854 108.776 19.4688 108.945 19.0781C109.121 18.6875 109.362 18.3457 109.668 18.0527C109.928 17.7793 110.199 17.5352 110.479 17.3203C110.758 17.099 111.11 16.8809 111.533 16.666C111.963 16.4447 112.428 16.2624 112.93 16.1191C113.431 15.9759 114.03 15.862 114.727 15.7773C115.43 15.6862 116.198 15.6406 117.031 15.6406C118.112 15.6406 119.128 15.8001 120.078 16.1191C121.029 16.4382 121.849 16.8809 122.539 17.4473C123.229 18.0137 123.773 18.7103 124.17 19.5371C124.567 20.3639 124.766 21.2624 124.766 22.2324ZM119.297 29.6641V28.3164C118.893 27.9323 118.438 27.61 117.93 27.3496C117.428 27.0827 116.963 26.9492 116.533 26.9492C115.609 26.9492 114.958 27.1055 114.58 27.418C114.202 27.724 114.014 28.222 114.014 28.9121C114.014 29.7389 114.176 30.3477 114.502 30.7383C114.827 31.1289 115.433 31.3242 116.318 31.3242C116.82 31.3242 117.34 31.1647 117.881 30.8457C118.428 30.5202 118.9 30.1263 119.297 29.6641ZM152.695 15.6406C153.607 15.6406 154.404 15.7643 155.088 16.0117C155.771 16.2591 156.331 16.6009 156.768 17.0371C157.204 17.4668 157.555 18.0169 157.822 18.6875C158.096 19.3516 158.285 20.0677 158.389 20.8359C158.499 21.5977 158.555 22.4701 158.555 23.4531V30.875H160.508V34H151.133V30.875H153.086V23.0625C153.086 22.0339 152.992 21.2331 152.803 20.6602C152.62 20.0872 152.354 19.6934 152.002 19.4785C151.657 19.2637 151.185 19.1562 150.586 19.1562C150.026 19.1562 149.45 19.4004 148.857 19.8887C148.265 20.377 147.705 21.0605 147.178 21.9395C147.21 22.4082 147.227 22.9128 147.227 23.4531V30.875H149.18V34H139.805V30.875H141.758V23.0625C141.758 22.0339 141.663 21.2331 141.475 20.6602C141.292 20.0872 141.025 19.6934 140.674 19.4785C140.329 19.2637 139.857 19.1562 139.258 19.1562C138.711 19.1562 138.151 19.3874 137.578 19.8496C137.005 20.3118 136.462 20.9564 135.947 21.7832L135.898 30.875H137.852V34H128.477V30.875H130.43V19.1562H128.477V16.0312H134.541L135.908 18.6777C136.149 18.2415 136.426 17.8509 136.738 17.5059C137.057 17.1543 137.435 16.8353 137.871 16.5488C138.314 16.2559 138.831 16.0312 139.424 15.875C140.016 15.7188 140.664 15.6406 141.367 15.6406C142.155 15.6406 142.858 15.7318 143.477 15.9141C144.095 16.0898 144.619 16.3535 145.049 16.7051C145.485 17.0501 145.846 17.4635 146.133 17.9453C146.419 18.4206 146.647 18.974 146.816 19.6055C146.979 19.1823 147.168 18.7852 147.383 18.4141C147.604 18.043 147.884 17.6849 148.223 17.3398C148.561 16.9883 148.936 16.6921 149.346 16.4512C149.762 16.2038 150.257 16.0085 150.83 15.8652C151.403 15.7155 152.025 15.6406 152.695 15.6406Z" fill="#F5751E"/>
</svg>
