<svg width="180" height="180" viewBox="0 0 180 180" fill="none" xmlns="http://www.w3.org/2000/svg">
<path d="M0 44.9985C0 20.1465 20.1465 0 44.9985 0C69.8505 0 89.997 20.1465 89.997 44.9985V89.997H44.9985C20.1465 89.997 0 69.8505 0 44.9985Z" fill="#F5751E" fill-opacity="0.5"/>
<path d="M0 135.002C0 159.853 20.1465 180 44.9985 180C69.8505 180 89.997 159.853 89.997 135.002V90.003H44.9985C20.1465 90.003 0 110.15 0 135.002Z" fill="#857FE5" fill-opacity="0.5"/>
<path d="M180 44.9985C180 20.1465 159.853 0 135.002 0C110.15 0 90.003 20.1465 90.003 44.9985V89.997H135.002C159.854 89.997 180 69.8505 180 44.9985Z" fill="#488D55" fill-opacity="0.5"/>
<path d="M180 135.002C180 159.853 159.853 180 135.002 180C110.15 180 90.003 159.853 90.003 135.002V90.003H135.002C159.854 90.003 180 110.15 180 135.002Z" fill="#B84A4A" fill-opacity="0.5"/>
<path d="M83.8086 129.434H43.63V119.389H53.6747V61.6323H43.63V51.5876H83.8086C88.3078 51.5876 92.5558 52.0898 96.5527 53.0943C100.55 54.0778 104.086 55.459 107.162 57.2377C110.259 58.9955 113.032 61.0882 115.481 63.5156C117.95 65.9431 119.98 68.6007 121.57 71.4886C123.181 74.3764 124.406 77.4316 125.243 80.6543C126.08 83.856 126.498 87.1415 126.498 90.5106C126.498 93.8797 126.08 97.1756 125.243 100.398C124.406 103.6 123.181 106.645 121.57 109.533C119.98 112.42 117.95 115.078 115.481 117.506C113.032 119.933 110.259 122.036 107.162 123.815C104.086 125.573 100.55 126.954 96.5527 127.958C92.5558 128.942 88.3078 129.434 83.8086 129.434ZM83.8086 119.389C87.0731 119.389 89.9923 118.667 92.5663 117.223C95.1402 115.758 97.2433 113.728 98.8756 111.134C100.529 108.539 101.774 105.504 102.611 102.031C103.469 98.5359 103.898 94.6959 103.898 90.5106C103.898 87.1624 103.647 84.0444 103.145 81.1565C102.642 78.2687 101.858 75.6215 100.79 73.215C99.7231 70.7875 98.4047 68.7263 96.8352 67.0313C95.2867 65.3153 93.4033 63.9865 91.1851 63.0448C88.9669 62.1031 86.5081 61.6323 83.8086 61.6323H73.764V119.389H83.8086ZM132.556 127.142C130.61 125.175 129.637 122.8 129.637 120.017C129.637 117.234 130.61 114.869 132.556 112.923C134.524 110.956 136.899 109.972 139.682 109.972C142.465 109.972 144.83 110.956 146.776 112.923C148.743 114.869 149.727 117.234 149.727 120.017C149.727 122.8 148.743 125.175 146.776 127.142C144.83 129.088 142.465 130.061 139.682 130.061C136.899 130.061 134.524 129.088 132.556 127.142Z" fill="white"/>
</svg>
