<svg width="22" height="22" viewBox="0 0 22 22" fill="none" xmlns="http://www.w3.org/2000/svg">
<path d="M9 12C9.42945 12.5741 9.97736 13.0491 10.6066 13.3929C11.2357 13.7367 11.9315 13.9411 12.6467 13.9923C13.3618 14.0435 14.0796 13.9403 14.7513 13.6897C15.4231 13.4392 16.0331 13.047 16.54 12.54L19.54 9.53997C20.4508 8.59695 20.9548 7.33394 20.9434 6.02296C20.932 4.71198 20.4061 3.45791 19.4791 2.53087C18.5521 1.60383 17.298 1.07799 15.987 1.0666C14.676 1.0552 13.413 1.55918 12.47 2.46997L10.75 4.17997" stroke="#9A9893" stroke-width="2" stroke-linecap="round" stroke-linejoin="round"/>
<path d="M12.9982 9.99925C12.5688 9.42512 12.0209 8.95007 11.3917 8.60631C10.7625 8.26255 10.0667 8.05813 9.3516 8.00691C8.63645 7.9557 7.91866 8.05888 7.2469 8.30947C6.57514 8.56005 5.96513 8.95218 5.45825 9.45925L2.45825 12.4592C1.54746 13.4023 1.04348 14.6653 1.05488 15.9763C1.06627 17.2872 1.59211 18.5413 2.51915 19.4683C3.44619 20.3954 4.70026 20.9212 6.01124 20.9326C7.32222 20.944 8.58524 20.44 9.52825 19.5292L11.2382 17.8192" stroke="#9A9893" stroke-width="2" stroke-linecap="round" stroke-linejoin="round"/>
</svg>
