<svg width="26" height="26" viewBox="0 0 26 26" fill="none" xmlns="http://www.w3.org/2000/svg">
<path fill-rule="evenodd" clip-rule="evenodd" d="M-0.0116817 24.0473C-0.0116817 24.7837 0.75714 25.2675 1.42097 24.9489L25.4327 13.4258C26.1891 13.0628 26.1891 11.9857 25.4327 11.6227L1.42097 0.0996711C0.757141 -0.218897 -0.0116806 0.264918 -0.0116806 1.00123L-0.011681 9.35947C-0.011681 9.91176 0.436035 10.3595 0.988319 10.3595L8.89368 10.3595C9.44597 10.3595 9.89368 10.8072 9.89368 11.3595L9.89368 13.6854C9.89368 14.2376 9.44596 14.6854 8.89368 14.6854L0.988319 14.6854C0.436033 14.6854 -0.0116813 15.1331 -0.0116813 15.6854L-0.0116817 24.0473Z" fill="#A5A4AE"/>
</svg>
